<mxfile host="app.diagrams.net" modified="2021-03-24T04:10:37.263Z" agent="5.0 (Macintosh; Intel Mac OS X 10_15_7) AppleWebKit/537.36 (KHTML, like Gecko) Chrome/89.0.4389.82 Safari/537.36" etag="CLaVoFm1X7fhu7qGAttu" version="14.5.1" type="github">
  <diagram id="ft2ekDf52CcPwkjGjaUg" name="Page-1">
    <mxGraphModel dx="1426" dy="2092" grid="1" gridSize="10" guides="1" tooltips="1" connect="1" arrows="1" fold="1" page="1" pageScale="1" pageWidth="827" pageHeight="1169" math="0" shadow="0">
      <root>
        <mxCell id="0" />
        <mxCell id="1" parent="0" />
        <mxCell id="QKZV2CFVftr11WgmAgI6-5" style="edgeStyle=orthogonalEdgeStyle;rounded=0;orthogonalLoop=1;jettySize=auto;html=1;exitX=1;exitY=0.5;exitDx=0;exitDy=0;entryX=0;entryY=0.5;entryDx=0;entryDy=0;" edge="1" parent="1" source="QKZV2CFVftr11WgmAgI6-1" target="QKZV2CFVftr11WgmAgI6-4">
          <mxGeometry relative="1" as="geometry" />
        </mxCell>
        <mxCell id="QKZV2CFVftr11WgmAgI6-1" value="一次性優惠券" style="rounded=1;whiteSpace=wrap;html=1;" vertex="1" parent="1">
          <mxGeometry x="130" y="160" width="120" height="60" as="geometry" />
        </mxCell>
        <mxCell id="QKZV2CFVftr11WgmAgI6-19" style="edgeStyle=orthogonalEdgeStyle;rounded=0;orthogonalLoop=1;jettySize=auto;html=1;exitX=1;exitY=0.5;exitDx=0;exitDy=0;entryX=0;entryY=0.5;entryDx=0;entryDy=0;" edge="1" parent="1" source="QKZV2CFVftr11WgmAgI6-2" target="QKZV2CFVftr11WgmAgI6-17">
          <mxGeometry relative="1" as="geometry" />
        </mxCell>
        <mxCell id="QKZV2CFVftr11WgmAgI6-2" value="合購優惠券" style="rounded=1;whiteSpace=wrap;html=1;" vertex="1" parent="1">
          <mxGeometry x="130" y="380" width="120" height="60" as="geometry" />
        </mxCell>
        <mxCell id="QKZV2CFVftr11WgmAgI6-3" value="多次用優惠券" style="rounded=1;whiteSpace=wrap;html=1;" vertex="1" parent="1">
          <mxGeometry x="130" y="710" width="120" height="60" as="geometry" />
        </mxCell>
        <mxCell id="QKZV2CFVftr11WgmAgI6-8" value="綁定" style="edgeStyle=orthogonalEdgeStyle;rounded=0;orthogonalLoop=1;jettySize=auto;html=1;exitX=1;exitY=0.5;exitDx=0;exitDy=0;" edge="1" parent="1" source="QKZV2CFVftr11WgmAgI6-4" target="QKZV2CFVftr11WgmAgI6-7">
          <mxGeometry relative="1" as="geometry" />
        </mxCell>
        <mxCell id="QKZV2CFVftr11WgmAgI6-15" style="edgeStyle=orthogonalEdgeStyle;rounded=0;orthogonalLoop=1;jettySize=auto;html=1;exitX=1;exitY=0.5;exitDx=0;exitDy=0;entryX=0;entryY=0.5;entryDx=0;entryDy=0;" edge="1" parent="1" source="QKZV2CFVftr11WgmAgI6-4" target="QKZV2CFVftr11WgmAgI6-14">
          <mxGeometry relative="1" as="geometry" />
        </mxCell>
        <mxCell id="QKZV2CFVftr11WgmAgI6-16" value="無綁定" style="edgeLabel;html=1;align=center;verticalAlign=middle;resizable=0;points=[];" vertex="1" connectable="0" parent="QKZV2CFVftr11WgmAgI6-15">
          <mxGeometry x="-0.0267" y="3" relative="1" as="geometry">
            <mxPoint as="offset" />
          </mxGeometry>
        </mxCell>
        <mxCell id="QKZV2CFVftr11WgmAgI6-4" value="是否綁定" style="rhombus;whiteSpace=wrap;html=1;" vertex="1" parent="1">
          <mxGeometry x="304" y="150" width="110" height="80" as="geometry" />
        </mxCell>
        <mxCell id="QKZV2CFVftr11WgmAgI6-12" style="edgeStyle=orthogonalEdgeStyle;rounded=0;orthogonalLoop=1;jettySize=auto;html=1;exitX=1;exitY=0.5;exitDx=0;exitDy=0;" edge="1" parent="1" source="QKZV2CFVftr11WgmAgI6-7" target="QKZV2CFVftr11WgmAgI6-9">
          <mxGeometry relative="1" as="geometry" />
        </mxCell>
        <mxCell id="QKZV2CFVftr11WgmAgI6-13" value="!= 0" style="edgeLabel;html=1;align=center;verticalAlign=middle;resizable=0;points=[];" vertex="1" connectable="0" parent="QKZV2CFVftr11WgmAgI6-12">
          <mxGeometry x="-0.1167" relative="1" as="geometry">
            <mxPoint as="offset" />
          </mxGeometry>
        </mxCell>
        <mxCell id="QKZV2CFVftr11WgmAgI6-23" style="edgeStyle=orthogonalEdgeStyle;rounded=0;orthogonalLoop=1;jettySize=auto;html=1;exitX=1;exitY=0.5;exitDx=0;exitDy=0;entryX=0;entryY=0.5;entryDx=0;entryDy=0;" edge="1" parent="1" source="QKZV2CFVftr11WgmAgI6-7" target="QKZV2CFVftr11WgmAgI6-22">
          <mxGeometry relative="1" as="geometry" />
        </mxCell>
        <mxCell id="QKZV2CFVftr11WgmAgI6-7" value="status 是否 = 0" style="rhombus;whiteSpace=wrap;html=1;" vertex="1" parent="1">
          <mxGeometry x="500" y="90" width="110" height="80" as="geometry" />
        </mxCell>
        <mxCell id="QKZV2CFVftr11WgmAgI6-9" value="已使用" style="rounded=1;whiteSpace=wrap;html=1;" vertex="1" parent="1">
          <mxGeometry x="660" y="170" width="120" height="60" as="geometry" />
        </mxCell>
        <mxCell id="QKZV2CFVftr11WgmAgI6-14" value="不出現" style="rounded=1;whiteSpace=wrap;html=1;" vertex="1" parent="1">
          <mxGeometry x="500" y="250" width="120" height="60" as="geometry" />
        </mxCell>
        <mxCell id="QKZV2CFVftr11WgmAgI6-17" value="是否在 promo_code_log" style="rhombus;whiteSpace=wrap;html=1;" vertex="1" parent="1">
          <mxGeometry x="304" y="370" width="110" height="80" as="geometry" />
        </mxCell>
        <mxCell id="QKZV2CFVftr11WgmAgI6-20" value="已使用" style="rounded=1;whiteSpace=wrap;html=1;" vertex="1" parent="1">
          <mxGeometry x="495" y="360" width="120" height="60" as="geometry" />
        </mxCell>
        <mxCell id="QKZV2CFVftr11WgmAgI6-26" style="edgeStyle=orthogonalEdgeStyle;rounded=0;orthogonalLoop=1;jettySize=auto;html=1;exitX=1;exitY=0.5;exitDx=0;exitDy=0;entryX=0;entryY=0.5;entryDx=0;entryDy=0;" edge="1" parent="1" source="QKZV2CFVftr11WgmAgI6-22" target="QKZV2CFVftr11WgmAgI6-25">
          <mxGeometry relative="1" as="geometry" />
        </mxCell>
        <mxCell id="QKZV2CFVftr11WgmAgI6-28" value="否" style="edgeLabel;html=1;align=center;verticalAlign=middle;resizable=0;points=[];" vertex="1" connectable="0" parent="QKZV2CFVftr11WgmAgI6-26">
          <mxGeometry x="0.1333" relative="1" as="geometry">
            <mxPoint as="offset" />
          </mxGeometry>
        </mxCell>
        <mxCell id="QKZV2CFVftr11WgmAgI6-27" style="edgeStyle=orthogonalEdgeStyle;rounded=0;orthogonalLoop=1;jettySize=auto;html=1;exitX=1;exitY=0.5;exitDx=0;exitDy=0;entryX=0;entryY=0.5;entryDx=0;entryDy=0;" edge="1" parent="1" source="QKZV2CFVftr11WgmAgI6-22" target="QKZV2CFVftr11WgmAgI6-24">
          <mxGeometry relative="1" as="geometry" />
        </mxCell>
        <mxCell id="QKZV2CFVftr11WgmAgI6-29" value="是" style="edgeLabel;html=1;align=center;verticalAlign=middle;resizable=0;points=[];" vertex="1" connectable="0" parent="QKZV2CFVftr11WgmAgI6-27">
          <mxGeometry x="-0.0889" relative="1" as="geometry">
            <mxPoint as="offset" />
          </mxGeometry>
        </mxCell>
        <mxCell id="QKZV2CFVftr11WgmAgI6-22" value="是否已過期" style="rhombus;whiteSpace=wrap;html=1;" vertex="1" parent="1">
          <mxGeometry x="660" y="20" width="110" height="80" as="geometry" />
        </mxCell>
        <mxCell id="QKZV2CFVftr11WgmAgI6-24" value="已失效" style="rounded=1;whiteSpace=wrap;html=1;" vertex="1" parent="1">
          <mxGeometry x="800" y="90" width="120" height="60" as="geometry" />
        </mxCell>
        <mxCell id="QKZV2CFVftr11WgmAgI6-25" value="可使用" style="rounded=1;whiteSpace=wrap;html=1;" vertex="1" parent="1">
          <mxGeometry x="800" y="-30" width="120" height="60" as="geometry" />
        </mxCell>
      </root>
    </mxGraphModel>
  </diagram>
</mxfile>
